<svg width="859" height="843" viewBox="0 0 859 843" fill="none" xmlns="http://www.w3.org/2000/svg">
<path d="M142.602 74.9128C142.602 74.9128 138.002 58.1752 114.223 68.9563C82.8297 83.1817 54.7089 155.206 87.8585 220.566" stroke="black" stroke-width="9.23622" stroke-miterlimit="10" stroke-linecap="round"/>
<path d="M142.602 74.9125C142.602 74.9125 103.669 51.4593 110.817 119.372C116.606 174.393 82.3501 168.937 87.8574 211.989" stroke="black" stroke-width="9.23622" stroke-miterlimit="10" stroke-linecap="round"/>
<path d="M145.089 81.6154C145.089 81.6154 144.452 64.1175 127.411 65.1677C110.38 66.2182 88.8189 83.4338 91.4925 114.55C92.8921 130.836 98.4512 151.941 91.5958 167.213C81.1067 190.603 39.3832 207.736 70.3349 264.98" stroke="black" stroke-width="9.23622" stroke-miterlimit="10" stroke-linecap="round"/>
<path d="M301.433 432.22C304.159 438.154 301.994 450.067 296.537 453.668L268.557 472.133C257.588 479.371 242.733 474.628 237.997 462.367L218.918 413.017C218.918 413.017 212.861 307.972 256.512 365.449C276.141 391.288 301.433 432.22 301.433 432.22Z" fill="#6758F8"/>
<path d="M78.8198 770.8L154.66 773.406L153.905 795.376C153.708 801.108 148.895 805.609 143.154 805.412L88.0923 803.52C82.3599 803.323 77.8583 798.511 78.0556 792.769L78.8105 770.8L78.8198 770.8Z" fill="#010407"/>
<path d="M184.688 784.65L187.724 802C188.71 805.028 191.182 807.063 193.997 807.159L216.797 807.943C220.166 808.059 223.151 805.389 223.9 801.589L225.379 794.061C226.265 789.526 229.84 786.331 233.865 786.47C236.985 786.577 239.778 788.678 241.108 791.922L246.027 803.938C247.306 807.06 249.991 809.074 252.991 809.178L296.385 810.669C300.825 810.821 304.558 806.8 304.734 801.686L304.963 795.012C305.252 786.603 301.913 778.614 296.049 773.663L261.65 744.663L182.189 768.355L184.698 784.632L184.688 784.65Z" fill="#010407"/>
<path d="M43.2315 473.058L34.9919 510.056C33.4738 516.852 26.7467 521.13 19.9504 519.621C13.1545 518.103 8.87572 511.376 10.3846 504.58L18.6243 467.582" fill="#693D21"/>
<path d="M54.6164 480.075L46.3767 517.073C44.8586 523.869 38.1314 528.148 31.3352 526.639C24.5393 525.121 20.2606 518.394 21.7695 511.597L30.0091 474.6" fill="#693D21"/>
<path d="M94.0896 504.222L85.8499 541.22C84.3318 548.016 77.6046 552.294 70.8084 550.785C64.0125 549.267 59.7338 542.54 61.2427 535.744L69.4823 498.746" fill="#693D21"/>
<path d="M71.6017 489.245L63.3621 526.242C61.8439 533.038 55.1168 537.317 48.3206 535.808C41.5246 534.29 37.246 527.563 38.7549 520.767L46.9944 483.769" fill="#693D21"/>
<path d="M13.6025 493.509L34.5613 396.461L95.5324 462.241L101.327 470.841L94.0897 504.222L13.6025 493.509Z" fill="#693D21"/>
<path d="M22.7865 519.922C21.8529 519.927 20.9044 519.83 19.9504 519.621C13.1545 518.103 8.87572 511.376 10.3846 504.58L18.6243 467.582" stroke="white" stroke-width="0.923622" stroke-miterlimit="10" stroke-linecap="round"/>
<path d="M38.721 526.052C36.4535 526.953 33.8941 527.207 31.3352 526.639C24.5393 525.121 20.2606 518.394 21.7695 511.597L30.0091 474.6" stroke="white" stroke-width="0.923622" stroke-miterlimit="10" stroke-linecap="round"/>
<path d="M70.9292 551.307C64.1333 549.789 59.7342 542.531 61.2524 535.735L69.4919 498.737" stroke="white" stroke-width="0.923622" stroke-miterlimit="10" stroke-linecap="round"/>
<path d="M71.6017 489.245L63.3621 526.242C61.8439 533.038 55.1168 537.317 48.3206 535.808C41.5246 534.29 37.246 527.563 38.7549 520.767L46.9944 483.769" stroke="white" stroke-width="0.923622" stroke-miterlimit="10" stroke-linecap="round"/>
<path d="M123.188 188.048L193.904 184.332" stroke="#010407" stroke-width="0.923622" stroke-linecap="round" stroke-linejoin="round"/>
<path d="M119.401 188.327L187.453 184.658L207.238 335.053L124.066 334.967L119.401 188.327Z" fill="#FF318C" stroke="black" stroke-width="0.923622"/>
<path d="M147.002 435.267C147.002 435.267 157.904 523.299 181.297 571.633C181.625 572.31 181.719 573.071 181.564 573.814C178.931 585.886 155.403 684.536 176.684 778.479C176.684 778.479 202.691 783.568 235.871 783.479C274.524 783.375 301.905 779.926 301.905 779.926C301.905 779.926 251.542 622.206 258.778 565.738C258.778 565.738 270.549 418.719 208.326 335.873L147.02 435.277L147.002 435.267Z" fill="#6758F8"/>
<path d="M84.0841 332.279C84.0841 332.279 61.4767 437.226 80.8026 582.403C80.8026 582.403 68.7946 613.421 67.7855 642.784C66.5674 678.23 67.1462 781.868 67.1462 781.868C88.1558 801.674 164.844 788.192 164.109 784.045C160.247 762.24 148.477 723.399 147.833 677.308C147.621 661.968 151.833 641.587 150.357 617.859C149.708 607.431 146.528 590.779 146.528 590.779C146.528 590.779 151.891 574.837 155.272 553.891C163.748 501.413 174.49 406.666 165.152 372.881C152.082 325.623 84.0844 332.269 84.0844 332.269L84.0841 332.279Z" fill="#6758F8"/>
<path d="M131.513 327.957L208.488 330.603L227.874 454.95L113.492 470.214L131.513 327.957Z" fill="#6758F8"/>
<path d="M193.904 184.332L201.639 187.038C230.879 197.257 252.614 222.06 258.919 252.386L286.268 339.162C288.742 351.058 287.684 363.304 283.391 374.459C281.798 378.609 279.747 382.605 277.27 386.383C277.202 386.491 277.124 386.6 277.047 386.699L235.141 440.062C235.141 440.062 208.622 427.293 207.992 374.354L193.914 184.323L193.904 184.332Z" fill="#6758F8"/>
<path d="M184.14 130.163C185.683 148.459 172.099 164.544 153.803 166.097C135.507 167.64 119.422 154.056 117.869 135.76C116.326 117.464 130.006 98.591 148.302 97.048C166.598 95.5049 182.587 111.867 184.139 130.173L184.14 130.163Z" fill="#693D21"/>
<path d="M156.235 130.019L156.656 134.968C156.761 136.22 157.866 137.154 159.117 137.04C160.368 136.935 161.303 135.83 161.198 134.579L160.777 129.63C160.672 128.378 159.567 127.444 158.316 127.558C157.064 127.663 156.13 128.768 156.235 130.019Z" fill="black"/>
<path d="M140.821 131.319L141.243 136.268C141.348 137.52 142.452 138.454 143.704 138.34C144.955 138.235 145.889 137.13 145.785 135.879L145.363 130.93C145.258 129.678 144.154 128.744 142.902 128.858C141.651 128.963 140.716 130.068 140.821 131.319Z" fill="black"/>
<path d="M120.451 148.047C126.247 148.247 131.107 143.709 131.307 137.913C131.506 132.116 126.968 127.256 121.172 127.057C115.376 126.858 110.515 131.395 110.316 137.191C110.117 142.988 114.654 147.848 120.451 148.047Z" fill="#693D21"/>
<path d="M182.114 142.838C187.911 143.037 192.771 138.5 192.97 132.703C193.17 126.907 188.632 122.046 182.836 121.847C177.039 121.648 172.179 126.186 171.98 131.982C171.781 137.778 176.318 142.639 182.114 142.838Z" fill="#693D21"/>
<path d="M127.712 180.117C127.712 180.117 106.961 186.418 100.381 189.371C80.4248 198.343 67.9508 218.717 63.5544 240.155L22.4331 440.386L63.1476 451.267L59.5199 475.614C58.7609 482.103 64.5222 492.754 70.8209 494.486L103.148 503.369C115.819 506.854 128.47 497.733 129.17 484.606L132.668 231.68L127.712 180.126L127.712 180.117Z" fill="#6758F8"/>
<path d="M127.82 182.107C127.419 178.979 124.243 177.012 121.259 178.037L104.537 183.802C102.921 184.578 101.975 186.293 102.191 188.074L134.305 408.067L132.997 222.107L127.829 182.107L127.82 182.107Z" fill="#6758F8" stroke="white" stroke-width="0.923622" stroke-miterlimit="10"/>
<path d="M216.499 364.009L208.837 190.843C208.507 186.997 205.968 183.684 202.326 182.376L189.719 177.839C186.524 176.685 183.135 179.009 183.056 182.407L182.448 208.42C182.223 217.922 182.923 227.418 184.542 236.78L208.513 376.128" fill="#6758F8"/>
<path d="M216.499 364.009L208.837 190.843C208.507 186.997 205.968 183.684 202.326 182.376L189.719 177.839C186.524 176.685 183.135 179.009 183.056 182.407L182.448 208.42C182.223 217.922 182.923 227.418 184.542 236.78L208.513 376.128" stroke="white" stroke-width="0.923622" stroke-miterlimit="10"/>
<path d="M200.604 387.926L232.288 340.228C234.999 336.097 236.286 331.188 235.947 326.26L232.113 270.539" stroke="white" stroke-width="0.923622" stroke-linecap="round" stroke-linejoin="round"/>
<path d="M194.389 377.306C194.389 377.306 212.015 414.888 248.135 426.341" stroke="white" stroke-width="0.923622" stroke-linecap="round" stroke-linejoin="round"/>
<path d="M166.028 442.594C166.028 442.594 164.102 569.896 136.457 614.119" stroke="white" stroke-width="0.923622" stroke-linecap="round" stroke-linejoin="round"/>
<path d="M292.302 366.614L248.144 426.341C248.144 426.341 274.054 553.944 248.555 606.956" stroke="white" stroke-width="0.923622" stroke-linecap="round" stroke-linejoin="round"/>
<path d="M134.048 349.116L204.276 351.529" stroke="white" stroke-width="0.923622" stroke-miterlimit="10"/>
<path d="M147.289 96.7152C154.411 95.6722 159.2 88.1084 157.986 79.8209C156.773 71.5335 150.016 65.6606 142.894 66.7036C135.772 67.7466 130.983 75.3104 132.197 83.5978C133.411 91.8853 140.168 97.7582 147.289 96.7152Z" fill="black"/>
<path d="M118.222 127.381C118.222 127.381 122.05 97.745 147.204 95.0976C153.91 94.3946 172.21 96.2249 182.836 121.848C182.836 121.848 180.849 122.103 180.267 123.173C180.267 123.173 165.974 101.01 148.581 102.899C130.196 104.891 120.673 127.049 120.673 127.049L118.222 127.381Z" fill="black"/>
<path d="M145.248 76.9999C145.248 76.9999 90.7332 91.7245 94.0254 129.313C99.2956 189.481 117.96 220.509 83.5117 265.83C48.2405 312.231 57.2922 343.575 66.6914 371.263" stroke="black" stroke-width="9.23622" stroke-miterlimit="10" stroke-linecap="round"/>
<path d="M91.6721 266.101L59.7242 473.43C58.2614 482.918 63.6934 492.124 72.701 495.437L93.9199 503.236C110.932 509.486 129.142 497.534 130.189 479.447L134.305 408.076" stroke="white" stroke-width="0.923622" stroke-linecap="round" stroke-linejoin="round"/>
<path d="M186.669 138.577C194.968 138.862 201.466 145.823 201.18 154.121C200.895 162.42 193.935 168.918 185.636 168.633C180.015 168.439 175.22 165.179 172.801 160.521" stroke="black" stroke-width="0.923622" stroke-miterlimit="10" stroke-linecap="round"/>
<path d="M135.767 165.708C133.336 171.105 127.822 174.778 121.536 174.562C113.237 174.277 106.739 167.317 107.024 159.018C107.264 152.03 112.238 146.324 118.758 144.866" stroke="black" stroke-width="0.923622" stroke-miterlimit="10" stroke-linecap="round"/>
<g clip-path="url(#clip0_8_99)">
<path d="M666.806 63.925C666.806 81.0446 651.322 99.2379 635.798 99.2379C621.639 99.2379 604.79 81.0546 604.79 63.925C604.79 46.7954 618.669 22.5812 635.798 22.5812C652.928 22.5812 666.806 46.7954 666.806 63.925Z" fill="#FDD2B0"/>
<path d="M642.17 59.0176V63.6537C642.17 64.8278 643.124 65.7812 644.298 65.7711C645.472 65.7711 646.425 64.8178 646.425 63.6437V59.0076C646.425 57.8335 645.472 56.8802 644.298 56.8902C643.124 56.8902 642.17 57.8435 642.17 59.0176Z" fill="#010101"/>
<path d="M625.161 59.0177V63.6539C625.161 64.828 626.114 65.7813 627.288 65.7712C628.462 65.7712 629.416 64.8179 629.416 63.6438V59.0077C629.416 57.8336 628.462 56.8803 627.288 56.8903C626.114 56.8903 625.161 57.8437 625.161 59.0177Z" fill="#010101"/>
<path d="M635.648 28.9938C635.648 28.9938 610.741 31.7735 606.557 74.0004L590.32 66.1531C590.32 37.4934 612.989 17.3333 625.733 15.1155C631.644 14.092 635.658 16.4502 635.658 16.4502V28.9938H635.648Z" fill="#07090B"/>
<path d="M666.324 65.2796C666.023 65.2796 665.732 65.0789 665.652 64.7678C665.541 64.3966 665.762 64.0052 666.133 63.8948C666.284 63.8547 669.686 62.791 671.793 58.1147C671.954 57.7635 672.365 57.6029 672.726 57.7635C673.078 57.924 673.238 58.3355 673.078 58.6967C670.689 64.0052 666.695 65.2094 666.525 65.2495C666.465 65.2696 666.394 65.2796 666.334 65.2796H666.324Z" fill="black"/>
<path d="M635.647 28.9937C635.647 28.9937 660.975 31.7734 665.16 74.0003L680.975 66.153C677.433 34.0714 657.142 16.8213 645.572 15.1154C640.163 14.3126 635.647 16.4501 635.647 16.4501V28.9937Z" fill="#07090B"/>
<path d="M662.782 115.765H606.516C606.516 115.765 561.439 136.387 550.762 143.522C536.051 153.356 530.201 167.656 522.664 197.379L504.17 299.675L550.762 390.744L716.619 255.244L780.216 278.556L751.169 182.096C749.433 161.675 735.926 144.154 716.619 137.28L662.782 115.755V115.765Z" fill="#6B57FF"/>
<path d="M561.143 298.838L551.923 307.16" stroke="white" stroke-width="0.883308" stroke-linecap="round" stroke-linejoin="round"/>
<path d="M641.348 383.035C641.348 383.035 657.714 462.481 661.949 550.468C663.173 575.866 659.972 595.163 657.835 604.787C656.721 609.824 656.39 615.002 656.821 620.15L663.906 724.282L705.752 718.994L716.088 584.265C716.088 584.265 731.581 471.342 724.035 408.584C721.747 389.538 717.071 375.138 709.535 369.879C709.535 369.879 713.308 346.508 714.833 328.254L641.348 383.035Z" fill="#07090B"/>
<path d="M646.776 373.723L630.61 563.583C630.61 563.583 641.639 611.44 633.269 674.037V716.545H592.186L595.227 697.92C595.227 697.92 585.001 638.403 584.47 610.717C584.369 605.449 583.647 600.221 582.392 595.103L573.06 557.01L569.357 417.063L646.786 373.723H646.776Z" fill="#07090B"/>
<path d="M564.821 400.747C564.821 400.747 688.752 430.129 728.32 382.865L732.936 407.471C664.237 441.68 573.842 422.694 564.821 415.93V400.747Z" fill="white"/>
<path d="M636.189 116.016C636.189 116.016 629.275 116.779 627.68 124.385C626.084 131.992 627.68 138.143 627.68 138.143L598.498 120.903C598.498 120.903 601.499 109.724 612.126 108.179C613.189 108.028 614.283 108.209 615.247 108.711L636.189 116.026V116.016Z" fill="white"/>
<path d="M635.647 116.017C635.647 116.017 642.561 116.779 644.157 124.386C645.753 131.992 644.157 137.281 644.157 137.281L673.339 120.904C673.339 120.904 670.338 109.725 659.711 108.179C658.647 108.029 657.554 108.209 656.59 108.711L635.647 116.027V116.017Z" fill="white"/>
<path d="M558.228 400.656C558.228 400.656 680.975 431.704 737.673 387.129L724.122 245.773L562.027 294.863C562.027 294.863 558.77 372.458 558.228 400.656Z" fill="#6B57FF"/>
<path d="M631.613 807.091H571.976C569.676 807.091 567.811 808.955 567.811 811.255V818.912C567.811 821.212 569.676 823.076 571.976 823.076H631.613C633.913 823.076 635.778 821.212 635.778 818.912V811.255C635.778 808.955 633.913 807.091 631.613 807.091Z" fill="white"/>
<path d="M629.948 823.778H573.632C570.029 823.778 567.109 820.848 567.109 817.256V812.911C567.109 809.308 570.039 806.388 573.632 806.388H629.948C633.55 806.388 636.471 809.318 636.471 812.911V817.256C636.471 820.858 633.54 823.778 629.948 823.778ZM573.632 807.793C570.812 807.793 568.514 810.091 568.514 812.911V817.256C568.514 820.076 570.812 822.374 573.632 822.374H629.948C632.768 822.374 635.066 820.076 635.066 817.256V812.911C635.066 810.091 632.768 807.793 629.948 807.793H573.632Z" fill="#010101"/>
<path d="M703.032 733.284V749.731C703.032 749.731 712.164 765.235 713.679 774.366C713.679 774.366 730.417 791.867 728.14 807.08H664.428C664.428 807.08 658.899 797.949 662.702 791.105C666.505 784.261 661.598 775.761 661.016 770.874C660.424 765.987 660.173 755.33 664.99 749.721V728.708L703.032 733.274V733.284Z" fill="#07090B"/>
<path d="M594.741 733.284V749.731C594.741 749.731 585.609 765.235 584.094 774.366C584.094 774.366 567.356 791.867 569.634 807.08H633.345C633.345 807.08 638.874 797.949 635.071 791.105C631.268 784.261 636.175 775.761 636.757 770.874C637.349 765.987 637.6 755.33 632.783 749.721V728.708L594.741 733.274V733.284Z" fill="#07090B"/>
<path d="M666.063 823.086H725.701C728.001 823.086 729.865 821.222 729.865 818.922V811.265C729.865 808.965 728.001 807.101 725.701 807.101H666.063C663.763 807.101 661.899 808.965 661.899 811.265V818.922C661.899 821.222 663.763 823.086 666.063 823.086Z" fill="white"/>
<path d="M724.045 823.778H667.729C664.127 823.778 661.207 820.848 661.207 817.256V812.911C661.207 809.308 664.137 806.388 667.729 806.388H724.045C727.648 806.388 730.568 809.318 730.568 812.911V817.256C730.568 820.858 727.638 823.778 724.045 823.778ZM667.729 807.793C664.909 807.793 662.611 810.091 662.611 812.911V817.256C662.611 820.076 664.909 822.374 667.729 822.374H724.045C726.865 822.374 729.163 820.076 729.163 817.256V812.911C729.163 810.091 726.865 807.793 724.045 807.793H667.729Z" fill="#010101"/>
<path d="M632.637 716.545H592.257C590.522 716.545 589.116 717.952 589.116 719.686V729.38C589.116 731.115 590.522 732.521 592.257 732.521H632.637C634.372 732.521 635.778 731.115 635.778 729.38V719.686C635.778 717.952 634.372 716.545 632.637 716.545Z" fill="white"/>
<path d="M631.383 733.233H593.501C590.691 733.233 588.403 730.945 588.403 728.136V720.941C588.403 718.131 590.691 715.843 593.501 715.843H631.383C634.192 715.843 636.48 718.131 636.48 720.941V728.136C636.48 730.945 634.192 733.233 631.383 733.233ZM593.501 717.258C591.464 717.258 589.808 718.914 589.808 720.951V728.146C589.808 730.183 591.464 731.839 593.501 731.839H631.383C633.42 731.839 635.075 730.183 635.075 728.146V720.951C635.075 718.914 633.42 717.258 631.383 717.258H593.501Z" fill="#010101"/>
<path d="M703.825 716.546H664.247C662.291 716.546 660.705 718.132 660.705 720.088V728.979C660.705 730.935 662.291 732.521 664.247 732.521H703.825C705.781 732.521 707.367 730.935 707.367 728.979V720.088C707.367 718.132 705.781 716.546 703.825 716.546Z" fill="white"/>
<path d="M702.4 733.233H665.672C662.541 733.233 660.002 730.695 660.002 727.564V721.523C660.002 718.392 662.541 715.853 665.672 715.853H702.4C705.531 715.853 708.07 718.392 708.07 721.523V727.564C708.07 730.695 705.531 733.233 702.4 733.233ZM665.672 717.258C663.324 717.258 661.407 719.175 661.407 721.523V727.564C661.407 729.912 663.324 731.829 665.672 731.829H702.4C704.748 731.829 706.665 729.912 706.665 727.564V721.523C706.665 719.175 704.748 717.258 702.4 717.258H665.672Z" fill="#010101"/>
<path d="M638.448 181.78C638.448 181.78 650.761 143.206 685.984 140.296V164.269L638.448 181.78Z" fill="white"/>
<path d="M693.12 137.98L722.096 140.879C726.06 141.275 729.707 143.233 732.233 146.31L771.907 194.804L753.718 209.685L716.272 163.915L690.79 161.366C684.33 160.719 679.473 156.543 680.267 148.504C680.914 142.043 686.669 137.334 693.13 137.981L693.12 137.98Z" fill="#FDD2B0"/>
<path d="M700.473 156.895L724.916 159.34C728.88 159.736 732.527 161.695 735.052 164.781L774.726 213.275L756.537 228.157L719.082 182.375L694.609 179.927C687.829 179.249 682.067 174.648 683.077 166.964C684.328 157.488 693.114 156.158 700.473 156.895Z" fill="#FDD2B0"/>
<path d="M692.127 166.989L721.112 169.909C725.076 170.305 728.712 172.262 731.228 175.338L760.4 210.972L742.21 225.853L715.27 192.923L689.508 190.346C684.017 188.98 678.918 184.506 679.265 177.512C679.911 171.051 685.667 166.343 692.127 166.989Z" fill="#FDD2B0"/>
<path d="M690.01 188.417L721.873 191.604C723.79 191.796 725.65 192.355 727.355 193.252L785.78 223.876L775.102 244.823L718.044 214.85L687.34 211.779C680.69 211.114 675.903 205.037 676.884 198.348C677.813 192.088 683.71 187.786 690.01 188.417Z" fill="#FDD2B0"/>
<path d="M731.674 239.897L768.469 186.998L807.405 223.763C818.325 234.073 820.493 250.639 812.595 263.413L809.012 269.209C801.445 281.448 784.796 284.156 773.741 274.945L731.674 239.897Z" fill="#6B57FF"/>
<path d="M638.278 291.833L560.748 263.735V153.682L638.278 181.78V291.833Z" fill="#07090B"/>
<path d="M715.978 263.735L638.448 291.833V181.78L715.978 153.682V263.735Z" fill="#07090B"/>
<path d="M638.448 239.592C638.057 239.592 637.746 239.281 637.746 238.889V181.791C637.746 181.399 638.057 181.088 638.448 181.088C638.84 181.088 639.151 181.399 639.151 181.791V238.889C639.151 239.281 638.84 239.592 638.448 239.592Z" fill="white"/>
<path d="M675.467 294.452L662.803 314.07C652.356 330.257 631.102 335.475 614.344 325.972L575.178 284.558L586.066 272.917L606.266 280.243L618.95 261.778L675.467 294.462V294.452Z" fill="#FDD2B0"/>
<path d="M643.164 300.764L662.723 271.321C666.315 265.913 673.61 264.448 679.019 268.03C684.428 271.623 685.893 278.918 682.311 284.327L662.753 313.769" fill="#FDD2B0"/>
<path d="M637.435 292.676L656.993 263.234C660.585 257.825 667.88 256.36 673.289 259.942C678.698 263.535 680.163 270.83 676.581 276.239L657.023 305.681" fill="#FDD2B0"/>
<path d="M617.244 264.538L636.803 235.096C640.395 229.687 647.69 228.222 653.099 231.804C658.508 235.397 659.973 242.692 656.391 248.101L636.833 277.543" fill="#FDD2B0"/>
<path d="M628.152 281.448L647.71 252.005C651.303 246.596 658.598 245.131 664.007 248.714C669.416 252.306 670.881 259.602 667.298 265.01L647.74 294.453" fill="#FDD2B0"/>
<path d="M657.013 306.384C656.882 306.384 656.742 306.344 656.621 306.264C656.3 306.053 656.21 305.611 656.42 305.29L675.979 275.848C679.35 270.77 677.965 263.896 672.888 260.525C671.724 259.752 670.449 259.21 669.095 258.929C668.713 258.849 668.472 258.477 668.553 258.096C668.633 257.715 669.014 257.484 669.386 257.554C670.911 257.885 672.346 258.487 673.66 259.36C679.38 263.164 680.946 270.911 677.143 276.631L657.585 306.073C657.454 306.274 657.223 306.384 657.003 306.384H657.013Z" fill="#07090B"/>
<path d="M647.73 295.155C647.6 295.155 647.459 295.115 647.339 295.034C647.018 294.824 646.928 294.382 647.138 294.061L666.696 264.619C670.068 259.541 668.683 252.667 663.606 249.295C661.689 248.021 659.441 247.369 657.163 247.459C656.732 247.459 656.451 247.168 656.441 246.777C656.431 246.385 656.732 246.064 657.123 246.054C659.702 245.974 662.221 246.696 664.388 248.131C670.108 251.935 671.674 259.671 667.87 265.391L648.312 294.834C648.172 295.034 647.951 295.145 647.73 295.145V295.155Z" fill="#07090B"/>
<path d="M636.833 278.245C636.702 278.245 636.562 278.205 636.441 278.125C636.12 277.914 636.03 277.473 636.241 277.152L655.799 247.709C659.381 242.31 658.418 235.336 653.641 232.165C653.32 231.954 653.23 231.513 653.44 231.192C653.651 230.871 654.093 230.78 654.414 230.991C657.143 232.797 658.869 235.667 659.271 239.069C659.652 242.26 658.819 245.692 656.963 248.482L637.405 277.924C637.274 278.125 637.043 278.235 636.823 278.235L636.833 278.245Z" fill="#07090B"/>
<path d="M638.569 182.001C638.569 182.001 626.316 142.173 581.008 138.119L580.326 159.955L638.559 182.011L638.569 182.001Z" fill="white"/>
<path d="M632.166 179.432C632.166 179.432 616.663 148.916 571.355 144.862V157.375L632.166 179.432Z" fill="white"/>
<path d="M632.429 335.226L578.31 281.107L560.542 298.875L614.661 352.994L632.429 335.226Z" fill="white"/>
<path d="M740.369 227.132C737.073 229.769 732.136 241.038 735.778 246.502C739.42 251.966 757.51 261.634 774.651 271.304" stroke="white" stroke-width="0.883308" stroke-linecap="round" stroke-linejoin="round"/>
</g>
<path d="M507.298 400.291C507.298 393.328 501.655 387.684 494.695 387.684C487.734 387.684 482.092 393.328 482.092 400.291V440.635C482.092 447.598 487.734 453.243 494.695 453.243C501.655 453.243 507.298 447.598 507.298 440.635V400.291Z" fill="#EAC59F" stroke="white" stroke-width="0.923622" stroke-miterlimit="10" stroke-linecap="round"/>
<path d="M486.913 466.247L487.698 447.304C488.437 429.404 503.548 415.485 521.457 416.224C539.357 416.963 553.276 432.073 552.537 449.982L536.632 835.401" stroke="#010407" stroke-width="13.8543" stroke-miterlimit="10" stroke-linecap="square"/>
<path d="M573.78 434.548V403.321C573.78 399.044 572.08 394.953 569.06 391.932L521.549 344.412L503.723 362.238L548.574 407.089V434.548C548.574 441.512 552.509 447.147 561.182 447.156C568.146 447.156 573.789 441.512 573.789 434.548H573.78Z" fill="#EAC59F"/>
<path d="M563.62 436.479V410.128C563.62 405.851 561.921 401.76 558.9 398.73L511.389 351.219L493.563 369.045L538.414 413.896V440.275C538.414 447.58 542.709 454.221 551.022 453.963C561.265 453.649 563.629 444.412 563.629 436.479H563.62Z" fill="#EAC59F"/>
<path d="M548.888 448.522L548.87 417.285C548.87 413.018 547.17 408.927 544.15 405.906L509.237 370.975L491.411 388.801L523.673 421.063V448.827C524.542 454.831 528.772 460.751 536.281 461.13C543.245 461.13 548.888 455.486 548.888 448.522Z" fill="#EAC59F"/>
<path d="M533.325 454.498V420.158C533.325 418.098 532.928 416.048 532.161 414.136L505.718 348.522L482.23 357.675L508.12 421.756V454.849C508.12 462.007 514.095 467.78 521.337 467.438C528.116 467.115 533.334 461.278 533.334 454.489L533.325 454.498Z" fill="#EAC59F"/>
<path d="M547.78 453.685C548.777 453.898 549.858 453.999 551.013 453.963C561.256 453.648 563.62 444.412 563.62 436.478V410.127C563.62 405.851 561.921 401.759 558.9 398.73L550.523 390.353" stroke="white" stroke-width="0.923622" stroke-linecap="round" stroke-linejoin="round"/>
<path d="M532.023 460.216C533.298 460.724 534.72 461.047 536.281 461.121C543.245 461.121 548.888 455.477 548.888 448.513L548.87 417.276C548.87 413.009 547.17 408.918 544.15 405.897L536.281 395.775" stroke="white" stroke-width="0.923622" stroke-linecap="round" stroke-linejoin="round"/>
<path d="M501.941 406.452C503.492 410.285 508.12 420.324 508.12 424.462V454.849C508.12 462.007 514.096 467.78 521.337 467.438C528.116 467.115 533.335 461.278 533.335 454.489V420.149C533.335 418.089 532.937 416.039 532.171 414.127L524.773 395.775" stroke="white" stroke-width="0.923622" stroke-linecap="round" stroke-linejoin="round"/>
<path d="M561.699 447.137C568.405 446.823 573.771 441.207 573.771 434.41V403.32C573.771 399.044 572.071 394.952 569.051 391.932L503.141 326.023C495.208 318.089 484.706 313.24 473.512 312.353L468.349 311.947" stroke="white" stroke-width="0.923622" stroke-linecap="round" stroke-linejoin="round"/>
<path d="M514.788 192.273L524.458 307.218L555.021 377.275L466.446 402.591L456.545 342.205L464.266 127.527L471.553 130.852C496.002 142.01 512.525 165.488 514.779 192.273H514.788Z" fill="#010407"/>
<path d="M391.595 366.736L392.898 593.818L375.284 784.832H446.135L469.161 429.746C469.42 425.783 469.217 421.802 468.561 417.895L459.953 366.727H391.605L391.595 366.736Z" fill="#303033"/>
<path d="M426.425 56.9528C426.425 75.3144 421.466 99.4394 393.175 99.4394C364.884 99.4394 359.925 75.3144 359.925 56.9528C359.925 38.5912 374.813 23.7024 393.175 23.7024C411.537 23.7024 426.425 38.5912 426.425 56.9528Z" fill="#EAC59F"/>
<path d="M400.471 60.0011V64.9702C400.471 66.2263 401.497 67.2423 402.753 67.2423C404.009 67.2423 405.034 66.217 405.034 64.9609V59.9918C405.034 58.7357 404.009 57.7197 402.753 57.7197C401.497 57.7197 400.471 58.7449 400.471 60.0011Z" fill="black"/>
<path d="M381.306 60.0011V64.9702C381.306 66.2263 382.331 67.2423 383.588 67.2423C384.844 67.2423 385.869 66.217 385.869 64.9609V59.9918C385.869 58.7357 384.844 57.7197 383.588 57.7197C382.331 57.7197 381.306 58.7449 381.306 60.0011Z" fill="black"/>
<path d="M376.984 28.2932C382.082 27.4896 385.49 32.3386 390.727 31.8768C400.12 31.0456 397.858 35.2296 403.556 37.2985C408.313 39.0257 412.026 35.9223 417.743 36.0978C424.606 36.3102 426.425 50.1646 425.261 54.4594L434.017 55.5862C434.017 55.5862 437.795 53.0185 438.737 49.3702C441.129 40.1433 429.316 43.4036 432.438 35.1003C434.23 30.3159 433.842 24.7742 430 21.717C421.336 14.836 418.307 20.7287 413.559 11.2339C408.812 1.73903 404.665 1.01861 398.947 1.00014C388.409 0.972428 388.834 5.17491 384.216 6.13548C380.216 6.96674 378.323 1.74827 367.775 6.68965C363.259 8.80475 363.102 11.7696 362.012 18.1518C360.368 27.7667 351.058 26.1688 350.938 31.9138C350.854 36.1717 354.133 35.8207 353.117 39.6814C352.175 43.2651 344.98 45.177 349.838 53.3049C350.605 54.5979 354.244 52.2519 355.703 53.3049C355.703 53.3049 353.302 52.8061 359.721 53.3049C359.721 53.3049 359.795 38.2221 367.119 36.0886C372.79 34.4353 371.119 29.2076 376.974 28.2839L376.984 28.2932Z" fill="white" stroke="black" stroke-width="0.923622" stroke-linecap="round" stroke-linejoin="round"/>
<path d="M360.911 77.9375C367.807 76.7402 372.327 69.6094 371.007 62.0104C369.688 54.4113 363.029 49.2216 356.133 50.4189C349.238 51.6161 344.717 58.7469 346.037 66.346C347.356 73.945 354.016 79.1347 360.911 77.9375Z" fill="#EAC59F"/>
<path d="M440.35 66.3805C441.67 58.7815 437.149 51.6507 430.254 50.4534C423.358 49.2562 416.699 54.4458 415.38 62.0449C414.06 69.644 418.58 76.7748 425.476 77.972C432.371 79.1693 439.031 73.9796 440.35 66.3805Z" fill="#EAC59F"/>
<path d="M483.967 691.564L468.108 737.524L442.118 719.559L483.967 691.564Z" fill="#EAC59F"/>
<path d="M379.921 78.2896H376.226C369.964 78.2896 364.884 73.2097 364.884 66.9475V60.9901C364.884 54.728 369.964 49.6481 376.226 49.6481H379.921C383.726 49.6481 387.097 51.523 389.157 54.4047C390.487 56.2612 391.263 58.5333 391.263 60.9901V66.9475C391.263 73.2097 386.183 78.2896 379.921 78.2896Z" stroke="black" stroke-width="0.923622" stroke-miterlimit="10"/>
<path d="M410.114 78.2894H406.42C400.157 78.2894 395.077 73.2095 395.077 66.9473V60.99C395.077 58.6625 395.779 56.5012 396.98 54.6909C399.012 51.6429 402.485 49.6387 406.42 49.6387H410.114C416.376 49.6387 421.456 54.7186 421.456 60.9808V66.9381C421.456 73.2003 416.376 78.2802 410.114 78.2802V78.2894Z" stroke="black" stroke-width="0.923622" stroke-miterlimit="10"/>
<path d="M418.473 53.3137L422.472 51.2725" stroke="black" stroke-width="0.923622" stroke-linecap="round" stroke-linejoin="round"/>
<path d="M368.006 52.6856L363.601 51.2725" stroke="black" stroke-width="0.923622" stroke-linecap="round" stroke-linejoin="round"/>
<path d="M403.495 110.911L380.405 110.911L364.703 121.533L387.332 132.616L415.041 122.456L403.495 110.911Z" fill="white" stroke="white" stroke-width="0.923622"/>
<path d="M391.161 63.4H395.078" stroke="black" stroke-width="0.923622" stroke-miterlimit="10"/>
<path d="M425.151 61.5713C425.151 61.5713 425.742 55.1337 431.718 55.5863" stroke="black" stroke-width="0.923622" stroke-miterlimit="10" stroke-linecap="round"/>
<path d="M360.82 61.5713C360.82 61.5713 360.229 55.1337 354.253 55.5863" stroke="black" stroke-width="0.923622" stroke-miterlimit="10" stroke-linecap="round"/>
<path d="M272.457 180.219L246.199 286.51C240.084 311.244 241.341 337.226 249.801 361.259L279.8 431.842L329.343 387.822L321.797 358.515L310.428 248.457V133.225C291.429 142.489 277.528 159.706 272.457 180.229V180.219Z" fill="#010407"/>
<path d="M391.448 386.963L400.73 425.229L464.275 386.963H391.448Z" fill="white"/>
<path d="M399.105 109.802L391.411 124.202L383.588 109.802" fill="white"/>
<path d="M399.105 109.802L391.411 124.202L383.588 109.802" stroke="black" stroke-width="0.923622" stroke-linecap="round" stroke-linejoin="round"/>
<path d="M431.995 474.061L415.924 784.832" stroke="white" stroke-width="0.923622" stroke-linecap="round" stroke-linejoin="round"/>
<path d="M375.284 784.832C375.284 784.832 370.232 813.732 372.273 824.068H471.636C471.636 824.068 467.258 795.149 446.449 795.149L436.899 784.832H375.284Z" fill="black"/>
<path d="M474.056 841.681H370.999C368.283 841.681 366.159 839.325 366.445 836.619L367.332 828.159C367.572 825.831 369.539 824.058 371.885 824.058H472.883C475.377 824.058 477.492 825.868 477.88 828.334L479.062 835.834C479.543 838.901 477.169 841.681 474.066 841.681H474.056Z" fill="black"/>
<path d="M530.887 687.768L523.692 688.193C521.115 688.35 519.028 690.354 518.778 692.931L508.849 795.333L488.326 826.607C486.729 829.045 487.107 832.278 489.222 834.273L493.295 838.134C496.02 840.72 500.426 840.194 502.476 837.044L521.734 807.414C524.551 803.073 526.287 798.123 526.786 792.978L536.429 693.522C536.743 690.308 534.11 687.583 530.896 687.777L530.887 687.768Z" fill="black"/>
<path d="M483.967 691.565C483.967 691.565 503.511 687.362 520.616 693.477L515.564 799.804L489.49 826.543C489.49 826.543 477.529 822.507 486.341 792.775C486.608 791.861 490.266 781.71 487.403 778.598C486.886 778.034 486.424 777.434 486.11 776.741L468.099 737.533L483.967 691.565Z" fill="black"/>
<path d="M393.369 368.38L395.124 402.6L368.061 579.622L483.976 691.768L428.245 754.038L304.433 615.107C292.555 606.73 286.386 592.386 288.482 577.996L301.256 490.27L301.829 448.67L319.433 365.387L393.378 368.371L393.369 368.38Z" fill="#303033"/>
<path d="M381.02 703.553L428.236 754.038L450.827 728.796" stroke="white" stroke-width="0.923622" stroke-linecap="round" stroke-linejoin="round"/>
<path d="M298.688 610.452L375.284 658.453" stroke="white" stroke-width="0.923622" stroke-linecap="round" stroke-linejoin="round"/>
<path d="M428.042 109.802L417.152 117.016C402.614 126.64 383.736 126.64 369.198 117.016L358.308 109.802L310.437 133.216L295.28 180.856L316.376 387.092H465.956L478.878 134.186L428.042 109.793V109.802Z" fill="#010407"/>
<path d="M383.588 109.803L364.811 128.58L344.87 116.379L361.31 99.9291L383.588 109.803Z" fill="white" stroke="black" stroke-width="0.923622" stroke-linecap="round" stroke-linejoin="round"/>
<path d="M399.105 109.803L417.891 128.58L437.832 116.379L421.382 99.9291L399.105 109.803Z" fill="white" stroke="black" stroke-width="0.923622" stroke-linecap="round" stroke-linejoin="round"/>
<path d="M285.868 426.457L301.819 448.67L338.497 393.068L330.461 386.963L285.868 426.457Z" fill="#EAC59F"/>
<path d="M311.36 338.104L288.076 292.865" stroke="white" stroke-width="0.923622" stroke-linecap="round" stroke-linejoin="round"/>
<path d="M301.995 377.284L279.81 431.842L333.675 384.922L346.384 381.311L301.995 377.284Z" fill="#010407"/>
<path d="M391.254 386.963L381.962 425.229L316.376 387.102L391.254 386.963Z" fill="white"/>
<path d="M484.309 210.404L466.834 381.191C466.492 384.543 463.666 387.083 460.294 387.074H322.305C318.934 387.083 316.108 384.543 315.766 381.191L298.291 210.404" stroke="white" stroke-width="0.923622" stroke-linecap="round" stroke-linejoin="round"/>
<path d="M375.284 585.857L356.526 568.021" stroke="white" stroke-width="0.923622" stroke-linecap="round" stroke-linejoin="round"/>
<defs>
<clipPath id="clip0_8_99">
<rect width="354.691" height="808.275" fill="white" transform="translate(503.688 15.5042)"/>
</clipPath>
</defs>
</svg>
